<svg width="3607" height="3449" viewBox="0 0 3607 3449" fill="none" xmlns="http://www.w3.org/2000/svg">
<circle cx="1882.5" cy="1724.5" r="1702" stroke="white" stroke-width="45"/>
<rect x="1876.5" y="552" width="13" height="2346" fill="white" fill-opacity="0.6"/>
<rect x="710.002" y="1731.5" width="13" height="2346" transform="rotate(-90 710.002 1731.5)" fill="white" fill-opacity="0.6"/>
<path d="M1841.63 467V377.4H1858.78L1911.64 441.912H1903.32V377.4H1923.8V467H1906.78L1853.79 402.488H1862.11V467H1841.63Z" fill="white" fill-opacity="0.6"/>
<path d="M3166.7 1705.5H3209.83V1721.62H3166.7V1705.5ZM3168.23 1742.36H3217V1759H3147.63V1669.4H3215.34V1686.04H3168.23V1742.36Z" fill="white" fill-opacity="0.6"/>
<path d="M1877.07 3059.54C1869.9 3059.54 1863.03 3058.6 1856.46 3056.72C1849.89 3054.76 1844.6 3052.24 1840.59 3049.17L1847.63 3033.55C1851.47 3036.28 1855.99 3038.54 1861.19 3040.34C1866.48 3042.04 1871.82 3042.9 1877.19 3042.9C1881.29 3042.9 1884.58 3042.51 1887.05 3041.74C1889.61 3040.89 1891.49 3039.74 1892.68 3038.29C1893.88 3036.84 1894.47 3035.17 1894.47 3033.3C1894.47 3030.91 1893.54 3029.03 1891.66 3027.66C1889.78 3026.21 1887.31 3025.06 1884.23 3024.21C1881.16 3023.27 1877.75 3022.42 1873.99 3021.65C1870.32 3020.79 1866.61 3019.77 1862.86 3018.58C1859.19 3017.38 1855.82 3015.85 1852.75 3013.97C1849.67 3012.09 1847.16 3009.62 1845.19 3006.54C1843.32 3003.47 1842.38 2999.55 1842.38 2994.77C1842.38 2989.65 1843.74 2985 1846.47 2980.82C1849.29 2976.55 1853.47 2973.18 1859.02 2970.7C1864.65 2968.14 1871.69 2966.86 1880.14 2966.86C1885.77 2966.86 1891.32 2967.55 1896.78 2968.91C1902.24 2970.19 1907.06 2972.15 1911.24 2974.8L1904.84 2990.54C1900.66 2988.15 1896.48 2986.41 1892.3 2985.3C1888.12 2984.1 1884.02 2983.5 1880.01 2983.5C1876 2983.5 1872.71 2983.97 1870.15 2984.91C1867.59 2985.85 1865.76 2987.09 1864.65 2988.62C1863.54 2990.07 1862.99 2991.78 1862.99 2993.74C1862.99 2996.05 1863.92 2997.93 1865.8 2999.38C1867.68 3000.74 1870.15 3001.85 1873.23 3002.7C1876.3 3003.56 1879.67 3004.41 1883.34 3005.26C1887.09 3006.12 1890.8 3007.1 1894.47 3008.21C1898.23 3009.32 1901.64 3010.81 1904.71 3012.69C1907.79 3014.57 1910.26 3017.04 1912.14 3020.11C1914.1 3023.18 1915.08 3027.07 1915.08 3031.76C1915.08 3036.79 1913.67 3041.4 1910.86 3045.58C1908.04 3049.77 1903.82 3053.14 1898.19 3055.7C1892.64 3058.26 1885.6 3059.54 1877.07 3059.54Z" fill="white" fill-opacity="0.6"/>
<path d="M557.13 1759L527.818 1669.4H549.322L574.794 1748.76H564.042L590.666 1669.4H609.866L635.466 1748.76H625.098L651.21 1669.4H671.05L641.738 1759H619.466L596.81 1689.37H602.698L579.402 1759H557.13Z" fill="white" fill-opacity="0.6"/>
<path d="M2842.82 1235.08L1908.33 1810.76C1861.62 1839.54 1800.32 1822.17 1775.65 1773.17V1773.17C1750.98 1724.18 1773.51 1664.54 1824.41 1644.1L2842.82 1235.08Z" fill="white" fill-opacity="0.18"/>
<path d="M880.504 2224.57L1815 1648.89C1861.7 1620.12 1923.01 1637.49 1947.68 1686.48V1686.48C1972.35 1735.48 1949.82 1795.12 1898.92 1815.56L880.504 2224.57Z" fill="#00D2AC"/>
<circle cx="378.831" cy="2474.08" r="209" transform="rotate(179.483 378.831 2474.08)" fill="white"/>
<path d="M470.24 2519.02L381.565 2593.07L292.247 2520.62L380.258 2448.07L470.24 2519.02Z" fill="#00D2AC"/>
<path d="M470.328 2417.98L471.143 2508.26L384.481 2435.3L383.753 2354.54L470.328 2417.98Z" fill="#00D2AC"/>
<path d="M286.372 2423.61L287.15 2509.92L373.511 2438.65L372.776 2357.14L286.372 2423.61Z" fill="#00D2AC"/>
</svg>
